<svg viewBox="0 0 16 16" fill="none" xmlns="http://www.w3.org/2000/svg">
                <g clip-path="url(#clip0_1_38)">
                <path d="M1.09991 5.34711C-0.366027 6.78461 -0.366027 9.18773 1.09991 10.6534L5.3471 14.9002C6.7846 16.3659 9.18772 16.3659 10.6533 14.9002L14.9002 10.6534C16.3658 9.18773 16.3658 6.78461 14.9002 5.34711L10.6533 1.09992C9.18772 -0.366019 6.7846 -0.366019 5.3471 1.09992L1.09991 5.34711ZM9.8596 9.85961C8.83147 10.8846 7.16897 10.8846 6.14397 9.85961C5.11585 8.83148 5.11585 7.16898 6.14397 6.14398C7.16897 5.11586 8.83147 5.11586 9.8596 6.14398C10.8846 7.16898 10.8846 8.83148 9.8596 9.85961Z" />
                </g>
                <defs>
                <clipPath id="clip0_1_38">
                <rect width="16" height="16" />
                </clipPath>
                </defs>
            </svg>